<svg xmlns="http://www.w3.org/2000/svg" viewBox="0 0 227.46 122"><defs><style>.cls-1{fill:#333;}</style></defs><g id="Layer_2" data-name="Layer 2"><g id="Layer_1-2" data-name="Layer 1"><g id="Layer_2-2" data-name="Layer 2"><g id="Layer_1-2-2" data-name="Layer 1-2"><path class="cls-1" d="M76.33,36.57l0,0Z"/><path class="cls-1" d="M84.17,44.73a98,98,0,0,1-5.73-9.88.26.26,0,0,0-.34-.13.23.23,0,0,0-.09.08c-2,2.42-7.15,11.37-8.7,14.93a1.91,1.91,0,0,0,0,1.57,97.43,97.43,0,0,0,5.33,9.18.57.57,0,0,0,.77.16.64.64,0,0,0,.19-.21c1.93-3.59,5.78-10.19,8.53-14.74A.9.9,0,0,0,84.17,44.73Z"/><path class="cls-1" d="M91,50.61a2.15,2.15,0,0,0,.14-1.3c-.19-1-.58-2.26-.81-2-1.82,1.9-15.25,24-17.42,28.75-1.31,2.59-2.81,8-1.31,10.64C76.72,96,82,105.18,87.24,114.42a.37.37,0,0,0,.51.14s0,0,.08-.06c2.2-2.17,9.38-14,8.89-15.74-4.49-8-12.55-22.52-14.66-26.21A1.56,1.56,0,0,1,82,71.11Z"/><path class="cls-1" d="M89.73,112.74v0S89.74,112.73,89.73,112.74Z"/><path class="cls-1" d="M152.92,36.08a1.28,1.28,0,0,0-.26-1.78,1.55,1.55,0,0,0-.36-.19A486.67,486.67,0,0,1,83.79.17a1.18,1.18,0,0,0-1.48.22C79.9,3,75.13,11.26,74,14.77a1.27,1.27,0,0,0,.58,1.43,470.13,470.13,0,0,0,63.24,31.45,1,1,0,0,1,.53,1.25.92.92,0,0,1-.16.27c-6.23,7.25-17.13,19.31-26.82,28.61a.38.38,0,0,1-.55,0,.4.4,0,0,1-.1-.18c-1.52-6.92-4.25-29.13-5.1-38.36a.47.47,0,0,0-.48-.45.49.49,0,0,0-.39.24c-1.81,2.84-6.08,10.31-7.82,13.6a4.9,4.9,0,0,0-.55,2.81C97.71,68.53,101.21,90.49,102,95a.46.46,0,0,0,.54.38.42.42,0,0,0,.24-.12C117.85,80.59,144.07,49.39,152.92,36.08Z"/><path class="cls-1" d="M158.28,60.26l-18.89,2A2,2,0,0,0,138,63a85.74,85.74,0,0,0-8.43,14.68.4.4,0,0,0,.2.53.36.36,0,0,0,.21,0l19-2a.9.9,0,0,0,.71-.48c2.8-5.13,5.9-10.38,8.81-15.24a.22.22,0,0,0-.07-.3A.18.18,0,0,0,158.28,60.26Z"/><path class="cls-1" d="M214.3,81.15a3.58,3.58,0,0,0-.24-3.64c-13.89-20.38-29.73-39.35-43.3-60a1.13,1.13,0,0,0-1.56-.33,1.29,1.29,0,0,0-.33.33c-2.17,3.27-5.41,8.66-7.27,12.1a7.44,7.44,0,0,0-.85,4.29c2.61,24.35,8,77,9,87.58a.52.52,0,0,0,.57.48.55.55,0,0,0,.38-.23,121.07,121.07,0,0,0,7.75-12.51,5.86,5.86,0,0,0,.64-3.23c-1.63-18.26-3.53-36.52-5.48-54.73a.11.11,0,0,1,.09-.13.16.16,0,0,1,.11,0C184.23,65.5,195.17,79.39,205.1,94a1,1,0,0,0,1.4.27,1.1,1.1,0,0,0,.28-.29C209.93,89.09,212.54,84.63,214.3,81.15Z"/><path class="cls-1" d="M216.84,70.23a5.54,5.54,0,0,0,2.9-2.23c2.45-3.76,5.78-9.78,7.68-13.48a.43.43,0,0,0-.22-.57.44.44,0,0,0-.3,0C195,65,125,90.37,118.39,92.94A3.56,3.56,0,0,0,117,94.2c-1,1.33-5.94,10.87-7.45,13.87a.41.41,0,0,0,.18.55.42.42,0,0,0,.33,0C117.94,105.73,210.69,72.29,216.84,70.23Z"/><path class="cls-1" d="M74,27.28a.54.54,0,0,0-.23-.72.56.56,0,0,0-.36,0q-32.12,7.11-64.48,13C6.83,39.9,1.82,49.45.09,54.3a1.48,1.48,0,0,0,.74,1.84C16,62.63,46.56,75.65,57.39,80a1.33,1.33,0,0,1,.82,1.34A82.88,82.88,0,0,1,56.3,92.54a.93.93,0,0,1-1.12.64.52.52,0,0,1-.15-.06,167.22,167.22,0,0,1-31.21-16.9,1,1,0,0,0-1.31.18,78.81,78.81,0,0,0-8.32,14.31,1.32,1.32,0,0,0,.52,1.61A203.61,203.61,0,0,0,52.26,112.2a1.34,1.34,0,0,0,1.61-.5c2.8-4.16,5.63-9.09,7.54-12.58a17.88,17.88,0,0,0,1.74-4.47c2.06-9,3.8-18.13,5.85-27.19a2.34,2.34,0,0,0-1.37-2.67c-5.92-2.49-25-10.28-35.88-14.87a.26.26,0,0,1-.15-.35.27.27,0,0,1,.2-.17q15.84-3.18,31.6-6.66a4.51,4.51,0,0,0,2.84-2C68.66,37,72.58,30.13,74,27.28Z"/><path class="cls-1" d="M74,27.3a.55.55,0,0,0-.24-.73.53.53,0,0,0-.37,0c-21.51,4.61-42.68,8.85-64.45,13"/></g></g></g></g></svg>