<svg xmlns="http://www.w3.org/2000/svg" viewBox="0 0 73.82 81"><defs><style>.cls-1{fill:#fff;}.cls-2{fill:#333;}</style></defs><g id="Layer_2" data-name="Layer 2"><g id="Layer_1-2" data-name="Layer 1"><polygon class="cls-1" points="0 31.19 11.34 9.83 70.32 0 73.82 8.03 64.46 23.82 52.27 25.8 69.66 29.96 63.7 64.36 53.4 81 9.45 59.36 20.13 41.87 0 31.19"/><path class="cls-2" d="M67.73,13.83l0,0Z"/><path class="cls-2" d="M66,6.75a.39.39,0,0,0-.17-.54.38.38,0,0,0-.28,0q-24.45,5.41-49.11,9.9c-1.61.3-5.42,7.57-6.74,11.26a1.14,1.14,0,0,0,.56,1.41c11.55,4.94,34.84,14.85,43.08,18.2a1,1,0,0,1,.63,1,62.92,62.92,0,0,1-1.46,8.5.69.69,0,0,1-.85.49l-.11,0A128.47,128.47,0,0,1,27.73,44a.73.73,0,0,0-1,.14A60,60,0,0,0,20.4,55.06a1,1,0,0,0,.39,1.24A155.19,155.19,0,0,0,49.4,71.43a1,1,0,0,0,1.23-.37c2.13-3.17,4.28-6.93,5.74-9.58a13.47,13.47,0,0,0,1.32-3.41c1.58-6.86,2.9-13.81,4.46-20.71a1.79,1.79,0,0,0-1-2c-4.5-1.89-19-7.83-27.32-11.32a.21.21,0,0,1-.12-.27.22.22,0,0,1,.16-.13q12-2.42,24.06-5.07A3.44,3.44,0,0,0,60.05,17C61.89,14.12,64.88,8.92,66,6.75Z"/><path class="cls-2" d="M66,6.77a.42.42,0,0,0-.19-.56.44.44,0,0,0-.28,0C49.11,9.7,33,12.92,16.4,16.07"/></g></g></svg>