<svg xmlns="http://www.w3.org/2000/svg" viewBox="0 0 605.74 312.55"><defs><style>.cls-1{fill:#fff;}.cls-2{fill:#231f20;}</style></defs><g id="Layer_2" data-name="Layer 2"><g id="Layer_1-2" data-name="Layer 1"><polygon class="cls-1" points="605.74 156.27 530.18 0 290.76 0 290.76 0 75.55 0 0 156.27 75.55 312.55 334.98 312.55 334.98 312.55 530.18 312.55 605.74 156.27"/><g id="Layer_2-2" data-name="Layer 2"><g id="Layer_1-2-2" data-name="Layer 1-2"><path class="cls-2" d="M241.77,106.83l0-.07Z"/><path class="cls-2" d="M256.59,122.25a184.16,184.16,0,0,1-10.82-18.65.48.48,0,0,0-.64-.25.49.49,0,0,0-.18.14c-3.8,4.58-13.5,21.49-16.42,28.2a3.51,3.51,0,0,0,.09,3A183.42,183.42,0,0,0,238.69,152a1.05,1.05,0,0,0,1.8-.09c3.65-6.78,10.92-19.25,16.12-27.84A1.73,1.73,0,0,0,256.59,122.25Z"/><path class="cls-2" d="M269.38,133.36a4.15,4.15,0,0,0,.28-2.46c-.36-1.88-1.1-4.27-1.53-3.76-3.44,3.58-28.8,45.37-32.91,54.3-2.47,4.89-5.3,15-2.47,20.09,9.76,17.51,19.75,34.89,29.63,52.33a.71.71,0,0,0,1,.28l.16-.12c4.15-4.11,17.71-26.47,16.79-29.73-8.48-15.11-23.71-42.54-27.7-49.49a3.06,3.06,0,0,1-.15-2.73Z"/><path class="cls-2" d="M266.82,250.7v0C266.84,250.67,266.84,250.67,266.82,250.7Z"/><path class="cls-2" d="M386.44,105.92a2.41,2.41,0,0,0-.5-3.37,2.49,2.49,0,0,0-.69-.35c-45-17.76-88.48-39.94-129.37-64.11a2.24,2.24,0,0,0-2.81.41c-4.54,4.93-13.56,20.53-15.68,27.17a2.37,2.37,0,0,0,1.09,2.7,888.77,888.77,0,0,0,119.42,59.4,1.82,1.82,0,0,1,1,2.36,2.08,2.08,0,0,1-.32.51c-11.76,13.68-32.34,36.47-50.65,54a.73.73,0,0,1-1,0,.8.8,0,0,1-.19-.35c-2.87-13.07-8-55-9.63-72.45a.88.88,0,0,0-1.64-.4c-3.43,5.37-11.49,19.47-14.78,25.69a9.28,9.28,0,0,0-1,5.3c2.51,24.77,9.13,66.25,10.67,74.84a.89.89,0,0,0,1,.72.93.93,0,0,0,.46-.24C320.19,190,369.72,131,386.44,105.92Z"/><path class="cls-2" d="M396.55,151.58l-35.67,3.71a3.86,3.86,0,0,0-2.73,1.54,162.72,162.72,0,0,0-15.91,27.73.75.75,0,0,0,.37,1,.75.75,0,0,0,.39.07l36-3.74a1.74,1.74,0,0,0,1.35-.91c5.28-9.69,11.13-19.61,16.63-28.78a.42.42,0,0,0-.14-.57A.47.47,0,0,0,396.55,151.58Z"/><path class="cls-2" d="M502.35,191a6.8,6.8,0,0,0-.44-6.87c-26.24-38.49-56.15-74.32-81.79-113.25a2.13,2.13,0,0,0-2.95-.61,2.09,2.09,0,0,0-.61.61c-4.1,6.19-10.23,16.37-13.73,22.86a14,14,0,0,0-1.61,8.1c4.93,46,15.06,145.48,17,165.42a1,1,0,0,0,1.08.89,1,1,0,0,0,.72-.43,228.8,228.8,0,0,0,14.64-23.63,10.94,10.94,0,0,0,1.2-6.1c-3.07-34.48-6.66-69-10.33-103.37a.2.2,0,0,1,.15-.23.2.2,0,0,1,.21.09c19.7,27,40.37,53.21,59.12,80.83a1.91,1.91,0,0,0,3.18,0C494.11,206,499,197.6,502.35,191Z"/><path class="cls-2" d="M507.14,170.41a10.49,10.49,0,0,0,5.49-4.22c4.63-7.09,10.92-18.47,14.5-25.45a.82.82,0,0,0-.42-1.08.8.8,0,0,0-.55,0C466,160.51,333.72,208.44,321.21,213.3a6.82,6.82,0,0,0-2.6,2.37c-1.87,2.52-11.21,20.53-14.07,26.2a.78.78,0,0,0,1,1.08C320.36,237.45,495.53,174.29,507.14,170.41Z"/><path class="cls-2" d="M237.39,89.29a1,1,0,0,0-.42-1.35,1,1,0,0,0-.69-.09q-60.66,13.43-121.77,24.56c-4,.72-13.45,18.75-16.73,27.91a2.83,2.83,0,0,0,1.41,3.48c28.61,12.25,86.37,36.84,106.81,45.14a2.54,2.54,0,0,1,1.56,2.53,158.6,158.6,0,0,1-3.62,21.07,1.72,1.72,0,0,1-2.11,1.21,1.36,1.36,0,0,1-.28-.11c-21.92-9.43-39.67-18.53-59-31.93a1.83,1.83,0,0,0-2.46.36c-4.88,6.17-13.14,20.42-15.73,27a2.53,2.53,0,0,0,1,3c22.42,14.78,44.5,27,70.92,37.54a2.54,2.54,0,0,0,3-.93c5.29-7.87,10.63-17.17,14.24-23.76a33.9,33.9,0,0,0,3.28-8.44c3.9-17,7.19-34.26,11.05-51.36a4.44,4.44,0,0,0-2.59-5.05c-11.17-4.69-47.21-19.41-67.76-28.08a.5.5,0,0,1-.29-.65.53.53,0,0,1,.39-.32q29.9-6,59.67-12.59a8.52,8.52,0,0,0,5.38-3.78C227.29,107.56,234.69,94.68,237.39,89.29Z"/><path class="cls-2" d="M237.38,89.33a1,1,0,0,0-.46-1.38,1.09,1.09,0,0,0-.69-.08c-40.62,8.72-80.61,16.72-121.72,24.54"/></g></g></g></g></svg>