<svg xmlns="http://www.w3.org/2000/svg" viewBox="0 0 30.28 30.28"><defs><style>.cls-1{fill:#333;}</style></defs><g id="Layer_2" data-name="Layer 2"><g id="Layer_1-2" data-name="Layer 1"><path class="cls-1" d="M15.14,2.73c4,0,4.52,0,6.12.09,4.1.18,6,2.13,6.2,6.2.08,1.6.09,2.08.09,6.12s0,4.52-.09,6.12c-.19,4.07-2.1,6-6.2,6.2-1.6.08-2.08.09-6.12.09s-4.52,0-6.12-.09c-4.11-.19-6-2.14-6.2-6.2-.08-1.6-.09-2.08-.09-6.12s0-4.52.09-6.12C3,5,4.91,3,9,2.82,10.62,2.74,11.1,2.73,15.14,2.73Zm0-2.73C11,0,10.51,0,8.9.09,3.4.34.34,3.39.09,8.9,0,10.51,0,11,0,15.14s0,4.63.09,6.24c.25,5.5,3.3,8.55,8.81,8.81,1.61.07,2.13.09,6.24.09s4.63,0,6.24-.09c5.49-.26,8.56-3.31,8.8-8.81.08-1.61.1-2.13.1-6.24s0-4.63-.09-6.24C29.94,3.4,26.88.34,21.38.09,19.77,0,19.25,0,15.14,0Zm0,7.36a7.78,7.78,0,1,0,7.77,7.78A7.79,7.79,0,0,0,15.14,7.36Zm0,12.82a5,5,0,1,1,5-5A5,5,0,0,1,15.14,20.18ZM23.22,5.24A1.82,1.82,0,1,0,25,7.06,1.83,1.83,0,0,0,23.22,5.24Z"/></g></g></svg>