<svg xmlns="http://www.w3.org/2000/svg" viewBox="0 0 58.44 25.71"><defs><style>.cls-1{fill:#333;}</style></defs><g id="Layer_2" data-name="Layer 2"><g id="Layer_1-2" data-name="Layer 1"><path class="cls-1" d="M58.44,19.47a6.91,6.91,0,0,0-.39,1.27,7.48,7.48,0,0,1-7.27,5c-6.81,0-13.62,0-20.43,0-.83,0-1.13-.32-1.13-1.15,0-7.53,0-15.07,0-22.6A1,1,0,0,1,30,.84,13.45,13.45,0,0,1,47.1,8.08a10.64,10.64,0,0,1,.82,3.13c0,.44.16.47.55.34a7.6,7.6,0,0,1,9,3.24,10.36,10.36,0,0,1,1,2.74Z"/><path class="cls-1" d="M0,18.55C.37,17.38.51,16.16.77,15c.08-.4.26-.54.63-.54a.57.57,0,0,1,.65.54c.24,1.15.51,2.29.78,3.44a1.91,1.91,0,0,1,0,.89c-.27,1.11-.54,2.21-.77,3.32a.58.58,0,0,1-.66.54C1,23.15.85,23,.76,22.6A34.83,34.83,0,0,0,0,19.12Z"/><path class="cls-1" d="M26.12,12.89c0,1.69.24,4.18.13,6.67-.08,1.71-.23,3.41-.36,5.12a1,1,0,0,1-1.13,1c-.66,0-1-.35-1-1-.59-5.81-.16-11.62-.06-17.43,0-1,.05-2,.08-3a.94.94,0,0,1,1-1,.93.93,0,0,1,1.07,1C26,6.81,26,9.45,26.12,12.89Z"/><path class="cls-1" d="M17.73,13.72c.12-3.09.21-5.35.29-7.62,0-.66.3-.95.93-1a.84.84,0,0,1,1,.93c.14,3.27.2,6.54.43,9.8a59.5,59.5,0,0,1-.4,8.76c-.06.8-.4,1.08-1.13,1a.78.78,0,0,1-.79-.78A57.47,57.47,0,0,1,17.73,13.72Z"/><path class="cls-1" d="M14.28,12.6c.1,1.8.18,3.61.3,5.41a33.54,33.54,0,0,1-.36,4.48c-.06.8-.2,1.59-.26,2.38a.75.75,0,0,1-.86.77c-.48,0-.8-.2-.83-.73a64.69,64.69,0,0,1-.52-7.49c.2-3.76.36-7.52.54-11.28a.8.8,0,0,1,1.14-.76.69.69,0,0,1,.51.73q.17,3.24.35,6.49Z"/><path class="cls-1" d="M5.86,18.76c.22-3.12.45-6.25.67-9.38a.66.66,0,0,1,.77-.7c.45,0,.65.26.69.72.25,3.09.56,6.17.74,9.26a17.06,17.06,0,0,1-.31,3C8.28,22.77,8.12,23.88,8,25a.64.64,0,0,1-.7.65c-.42,0-.7-.15-.75-.6q-.36-3-.7-6.11a1,1,0,0,1,0-.17Z"/></g></g></svg>