<svg xmlns="http://www.w3.org/2000/svg" viewBox="0 0 29.3 35"><defs><style>.cls-1{fill:#333;}</style></defs><g id="Layer_2" data-name="Layer 2"><g id="Layer_1-2" data-name="Layer 1"><g id="Layer_2-2" data-name="Layer 2"><g id="Layer_5" data-name="Layer 5"><path class="cls-1" d="M0,19.48a11.85,11.85,0,0,1,1.88-7.09A8.74,8.74,0,0,1,8,8.63a8.06,8.06,0,0,1,4,.59l1.62.61a3.37,3.37,0,0,0,2.46,0,19.21,19.21,0,0,1,3.62-1.2,8.59,8.59,0,0,1,8.48,3.07c.15.18.15.28-.07.43a7.74,7.74,0,0,0-3.51,5.08,7.31,7.31,0,0,0,1.75,6.33,7.85,7.85,0,0,0,2.66,2c.26.12.27.25.19.51a21,21,0,0,1-3.31,5.91,11,11,0,0,1-2,2.09,4.67,4.67,0,0,1-4.72.55,17.92,17.92,0,0,0-2.46-.86,7.56,7.56,0,0,0-4.66.61A7.1,7.1,0,0,1,9.72,35a4.23,4.23,0,0,1-3.36-1.37A21.2,21.2,0,0,1,.83,24.31a21.63,21.63,0,0,1-.56-2.38A14.47,14.47,0,0,1,0,19.48Z"/><path class="cls-1" d="M21.87,1A7.66,7.66,0,0,1,16.16,8,6.11,6.11,0,0,1,15,8.1c-.29,0-.35-.1-.36-.37a7.1,7.1,0,0,1,1.77-4.82A8.18,8.18,0,0,1,21.48,0c.27,0,.41,0,.39.33S21.87.72,21.87,1Z"/></g></g></g></g></svg>