<svg xmlns="http://www.w3.org/2000/svg" viewBox="0 0 37.82 30.88"><defs><style>.cls-1{fill:#333;}</style></defs><g id="Layer_2" data-name="Layer 2"><g id="Layer_1-2" data-name="Layer 1"><g id="Layer_2-2" data-name="Layer 2"><g id="Layer_5" data-name="Layer 5"><path class="cls-1" d="M0,27.38a15.9,15.9,0,0,0,11.44-3.25,7.82,7.82,0,0,1-7.27-5.39,8.08,8.08,0,0,0,3.46-.15,7.79,7.79,0,0,1-4.47-2.76,7.55,7.55,0,0,1-1.71-4.91,14.56,14.56,0,0,0,1.66.61,9.28,9.28,0,0,0,1.74.28A7.91,7.91,0,0,1,1.56,6.22a7.52,7.52,0,0,1,1-4.75,22.3,22.3,0,0,0,16,8.12c0-.49-.1-1-.13-1.42A7.3,7.3,0,0,1,19.77,3.4a7.57,7.57,0,0,1,6-3.38A7.46,7.46,0,0,1,31.52,2.1a.81.81,0,0,0,.89.24A16.06,16.06,0,0,0,36.46.79c.09-.06.2-.1.37-.19a8,8,0,0,1-3.24,4.24,16.72,16.72,0,0,0,4.23-1.06l-.4.54L37,4.89a15.82,15.82,0,0,1-2.76,2.6A.54.54,0,0,0,34,8a22.46,22.46,0,0,1-2.93,11.74,21.85,21.85,0,0,1-5.72,6.71,20.83,20.83,0,0,1-8.16,3.86,23.26,23.26,0,0,1-8.19.4A22,22,0,0,1,.14,27.5Z"/></g></g></g></g></svg>